<svg xmlns="http://www.w3.org/2000/svg" width="1296" height="1624" viewBox="0 0 1296 1624" version="1.1"><path d="M 66 157 L 66 257 88 257 L 110 257 110 218 L 110 179 152 179 L 194 179 194 158.500 L 194 138 152 138 L 110 138 110 118 L 110 98 155 98 L 200 98 200 77.500 L 200 57 133 57 L 66 57 66 157 M 267 157.078 L 267 257.157 313.250 256.734 C 355.291 256.349, 360.319 256.125, 368.500 254.268 C 393.537 248.585, 410.733 239.538, 426 224.016 C 443.355 206.371, 450.732 188.407, 451.671 161.500 C 452.559 136.051, 448.244 118.311, 437.024 101.279 C 423.453 80.680, 403.358 67.771, 375 61.434 C 358.566 57.761, 346.617 57, 305.394 57 L 267 57 267 157.078 M 517 157 L 517 257 539.493 257 L 561.987 257 562.243 186.204 L 562.500 115.408 605.963 186.204 L 649.427 257 678.213 257 L 707 257 707 157 L 707 57 685.007 57 L 663.014 57 662.757 126.373 L 662.500 195.747 620 126.378 L 577.500 57.009 547.250 57.005 L 517 57 517 157 M 783 157.078 L 783 257.157 829.250 256.734 C 871.291 256.349, 876.319 256.125, 884.500 254.268 C 909.537 248.585, 926.733 239.538, 942 224.016 C 959.355 206.371, 966.732 188.407, 967.671 161.500 C 968.559 136.051, 964.244 118.311, 953.024 101.279 C 939.453 80.680, 919.358 67.771, 891 61.434 C 874.566 57.761, 862.617 57, 821.394 57 L 783 57 783 157.078 M 1096.546 63.228 C 1079.664 101.958, 1013 256.217, 1013 256.554 C 1013 256.799, 1023.913 256.998, 1037.250 256.996 L 1061.500 256.993 1064.712 248.746 C 1066.479 244.211, 1070.244 234.537, 1073.079 227.250 L 1078.234 214 1117.012 214 L 1155.789 214 1164.043 234.750 C 1168.583 246.163, 1172.598 255.846, 1172.966 256.268 C 1173.335 256.690, 1184.714 256.915, 1198.253 256.768 L 1222.871 256.500 1179.517 157 L 1136.162 57.500 1117.721 57.228 L 1099.280 56.957 1096.546 63.228 M 312 156.887 L 312 216 327.750 215.994 C 372.098 215.978, 393.260 205.057, 403.219 177.048 C 405.720 170.016, 406.759 150.947, 405.081 142.880 C 401.887 127.522, 391.186 113.789, 376.920 106.740 C 363.734 100.225, 356.302 98.797, 332.750 98.253 L 312 97.773 312 156.887 M 828 156.887 L 828 216 843.750 215.994 C 888.098 215.978, 909.260 205.057, 919.219 177.048 C 921.720 170.016, 922.759 150.947, 921.081 142.880 C 917.887 127.522, 907.186 113.789, 892.920 106.740 C 879.734 100.225, 872.302 98.797, 848.750 98.253 L 828 97.773 828 156.887 M 1115.583 117 C 1115.238 117.825, 1109.847 131.550, 1103.604 147.500 L 1092.253 176.500 1104.685 176.780 C 1111.522 176.934, 1122.410 176.934, 1128.880 176.780 L 1140.643 176.500 1129.354 148 C 1115.665 113.444, 1116.390 115.075, 1115.583 117 M 702.795 584.502 C 697.952 586.282, 688.605 592.673, 679.667 600.316 C 643.080 631.599, 471.218 790.443, 464.300 799.370 C 462.539 801.642, 460.655 805.525, 460.113 808 C 459.570 810.475, 458.852 830.050, 458.516 851.500 C 457.994 884.868, 458.118 890.789, 459.372 892.500 C 460.823 894.478, 461.994 894.500, 565.169 894.500 C 622.551 894.500, 670.668 894.171, 672.096 893.770 C 674.765 893.019, 693.383 873.615, 739.382 823.644 C 762.881 798.115, 764.033 796.682, 762.684 794.644 C 760.917 791.973, 770.604 792.331, 652.300 790.563 C 584.967 789.556, 555.464 788.784, 553.979 787.989 L 551.857 786.853 554.178 783.932 C 555.455 782.325, 595.425 744.564, 643 700.019 C 693.462 652.770, 730.891 616.972, 732.839 614.094 C 737.171 607.695, 737.434 602.123, 733.706 595.762 C 727.512 585.192, 714.157 580.327, 702.795 584.502 M 934.902 723.892 C 927.575 726.759, 920.448 732.015, 906.026 745.191 C 777.048 863.018, 697.913 935.930, 695.519 939.143 C 692.572 943.099, 692.531 943.332, 691.874 959.822 C 691.509 968.995, 691.050 988.351, 690.855 1002.837 L 690.500 1029.173 692.861 1031.087 C 695.152 1032.943, 698.246 1033, 797.361 1032.994 C 865.598 1032.991, 900.828 1032.640, 903.500 1031.937 C 906.678 1031.101, 909.837 1028.483, 918.878 1019.192 C 937.336 1000.223, 995.424 937.157, 996.378 935.050 C 996.861 933.983, 996.988 932.411, 996.660 931.555 C 996.125 930.162, 985.428 930, 894.181 930 C 798.150 930, 788.080 929.764, 785.176 927.444 C 783.544 926.141, 793.991 915.435, 829.762 881.755 C 905.531 810.414, 951.433 767.541, 956.193 763.670 C 965.928 755.751, 969.923 745.323, 966.577 736.564 C 964.707 731.666, 958.617 725.573, 953.422 723.403 C 948.853 721.494, 940.466 721.716, 934.902 723.892 M 336.381 791.938 C 316.665 795.063, 298.640 807.885, 290.055 824.890 C 285.010 834.885, 283.572 841.361, 283.589 854 C 283.602 863.933, 283.981 866.590, 286.365 873.500 C 291.906 889.555, 303.309 902.605, 318.218 909.954 C 331.997 916.745, 344.218 918.396, 358.792 915.433 C 393.506 908.376, 415.092 873.573, 406.819 838 C 406.243 835.525, 403.978 829.720, 401.785 825.101 C 394.691 810.156, 379.637 797.779, 363.500 793.626 C 355.944 791.681, 343.061 790.880, 336.381 791.938 M 561.500 934.039 C 550.543 936.285, 541.670 941.293, 534.262 949.412 C 528.035 956.237, 524.411 963.074, 521.978 972.585 C 517.046 991.870, 521.588 1008.782, 535.408 1022.583 C 547.158 1034.318, 559.442 1038.894, 575.500 1037.520 C 609.225 1034.633, 631.054 1005.310, 623.460 973.093 C 620.388 960.058, 610.896 947.363, 598.919 940.268 C 588.913 934.341, 572.972 931.687, 561.500 934.039 M 1061.500 948.920 C 1055.011 952.686, 1056.716 950.838, 989.919 1026.500 C 924.126 1101.025, 913.878 1112.447, 885.133 1143.287 C 873.629 1155.629, 863.717 1166.659, 863.108 1167.798 C 861.290 1171.194, 861.821 1175.634, 864.413 1178.714 C 865.740 1180.292, 870.862 1183.770, 875.794 1186.443 C 885.764 1191.848, 878.434 1185.564, 1012.726 1303.841 C 1056.851 1342.703, 1095.022 1375.591, 1097.552 1376.924 C 1108.138 1382.503, 1120.467 1379.455, 1126.356 1369.803 C 1130.304 1363.333, 1131.105 1354.063, 1128.200 1348.447 C 1125.389 1343.012, 1124.131 1341.857, 1048 1274.863 C 937.137 1177.305, 929.874 1170.819, 928.754 1168.360 C 927.989 1166.679, 927.988 1165.352, 928.751 1163.750 C 929.341 1162.513, 945.007 1144.400, 963.564 1123.500 C 1056.684 1018.622, 1086.760 984.400, 1089.490 980.212 C 1091.943 976.449, 1092.544 974.358, 1092.835 968.563 C 1093.167 961.931, 1092.985 961.197, 1089.845 956.537 C 1083.071 946.485, 1071.196 943.294, 1061.500 948.920" stroke="none" fill="#312e77" fill-rule="evenodd"/><path d="M 66 157 L 66 257 88 257 L 110 257 110 218 L 110 179 152 179 L 194 179 194 158.500 L 194 138 152 138 L 110 138 110 118 L 110 98 155 98 L 200 98 200 77.500 L 200 57 133 57 L 66 57 66 157 M 267 157.078 L 267 257.157 313.250 256.734 C 355.291 256.349, 360.319 256.125, 368.500 254.268 C 393.537 248.585, 410.733 239.538, 426 224.016 C 443.355 206.371, 450.732 188.407, 451.671 161.500 C 452.559 136.051, 448.244 118.311, 437.024 101.279 C 423.453 80.680, 403.358 67.771, 375 61.434 C 358.566 57.761, 346.617 57, 305.394 57 L 267 57 267 157.078 M 517 157 L 517 257 539.493 257 L 561.987 257 562.243 186.204 L 562.500 115.408 605.963 186.204 L 649.427 257 678.213 257 L 707 257 707 157 L 707 57 685.007 57 L 663.014 57 662.757 126.373 L 662.500 195.747 620 126.378 L 577.500 57.009 547.250 57.005 L 517 57 517 157 M 783 157.078 L 783 257.157 829.250 256.734 C 871.291 256.349, 876.319 256.125, 884.500 254.268 C 909.537 248.585, 926.733 239.538, 942 224.016 C 959.355 206.371, 966.732 188.407, 967.671 161.500 C 968.559 136.051, 964.244 118.311, 953.024 101.279 C 939.453 80.680, 919.358 67.771, 891 61.434 C 874.566 57.761, 862.617 57, 821.394 57 L 783 57 783 157.078 M 1096.546 63.228 C 1079.664 101.958, 1013 256.217, 1013 256.554 C 1013 256.799, 1023.913 256.998, 1037.250 256.996 L 1061.500 256.993 1064.712 248.746 C 1066.479 244.211, 1070.244 234.537, 1073.079 227.250 L 1078.234 214 1117.012 214 L 1155.789 214 1164.043 234.750 C 1168.583 246.163, 1172.598 255.846, 1172.966 256.268 C 1173.335 256.690, 1184.714 256.915, 1198.253 256.768 L 1222.871 256.500 1179.517 157 L 1136.162 57.500 1117.721 57.228 L 1099.280 56.957 1096.546 63.228 M 312 156.887 L 312 216 327.750 215.994 C 372.098 215.978, 393.260 205.057, 403.219 177.048 C 405.720 170.016, 406.759 150.947, 405.081 142.880 C 401.887 127.522, 391.186 113.789, 376.920 106.740 C 363.734 100.225, 356.302 98.797, 332.750 98.253 L 312 97.773 312 156.887 M 828 156.887 L 828 216 843.750 215.994 C 888.098 215.978, 909.260 205.057, 919.219 177.048 C 921.720 170.016, 922.759 150.947, 921.081 142.880 C 917.887 127.522, 907.186 113.789, 892.920 106.740 C 879.734 100.225, 872.302 98.797, 848.750 98.253 L 828 97.773 828 156.887 M 1115.583 117 C 1115.238 117.825, 1109.847 131.550, 1103.604 147.500 L 1092.253 176.500 1104.685 176.780 C 1111.522 176.934, 1122.410 176.934, 1128.880 176.780 L 1140.643 176.500 1129.354 148 C 1115.665 113.444, 1116.390 115.075, 1115.583 117 M 702.795 584.502 C 697.952 586.282, 688.605 592.673, 679.667 600.316 C 643.080 631.599, 471.218 790.443, 464.300 799.370 C 462.539 801.642, 460.655 805.525, 460.113 808 C 459.570 810.475, 458.852 830.050, 458.516 851.500 C 457.994 884.868, 458.118 890.789, 459.372 892.500 C 460.823 894.478, 461.994 894.500, 565.169 894.500 C 622.551 894.500, 670.668 894.171, 672.096 893.770 C 674.765 893.019, 693.383 873.615, 739.382 823.644 C 762.881 798.115, 764.033 796.682, 762.684 794.644 C 760.917 791.973, 770.604 792.331, 652.300 790.563 C 584.967 789.556, 555.464 788.784, 553.979 787.989 L 551.857 786.853 554.178 783.932 C 555.455 782.325, 595.425 744.564, 643 700.019 C 693.462 652.770, 730.891 616.972, 732.839 614.094 C 737.171 607.695, 737.434 602.123, 733.706 595.762 C 727.512 585.192, 714.157 580.327, 702.795 584.502 M 934.902 723.892 C 927.575 726.759, 920.448 732.015, 906.026 745.191 C 777.048 863.018, 697.913 935.930, 695.519 939.143 C 692.572 943.099, 692.531 943.332, 691.874 959.822 C 691.509 968.995, 691.050 988.351, 690.855 1002.837 L 690.500 1029.173 692.861 1031.087 C 695.152 1032.943, 698.246 1033, 797.361 1032.994 C 865.598 1032.991, 900.828 1032.640, 903.500 1031.937 C 906.678 1031.101, 909.837 1028.483, 918.878 1019.192 C 937.336 1000.223, 995.424 937.157, 996.378 935.050 C 996.861 933.983, 996.988 932.411, 996.660 931.555 C 996.125 930.162, 985.428 930, 894.181 930 C 798.150 930, 788.080 929.764, 785.176 927.444 C 783.544 926.141, 793.991 915.435, 829.762 881.755 C 905.531 810.414, 951.433 767.541, 956.193 763.670 C 965.928 755.751, 969.923 745.323, 966.577 736.564 C 964.707 731.666, 958.617 725.573, 953.422 723.403 C 948.853 721.494, 940.466 721.716, 934.902 723.892 M 336.381 791.938 C 316.665 795.063, 298.640 807.885, 290.055 824.890 C 285.010 834.885, 283.572 841.361, 283.589 854 C 283.602 863.933, 283.981 866.590, 286.365 873.500 C 291.906 889.555, 303.309 902.605, 318.218 909.954 C 331.997 916.745, 344.218 918.396, 358.792 915.433 C 393.506 908.376, 415.092 873.573, 406.819 838 C 406.243 835.525, 403.978 829.720, 401.785 825.101 C 394.691 810.156, 379.637 797.779, 363.500 793.626 C 355.944 791.681, 343.061 790.880, 336.381 791.938 M 561.500 934.039 C 550.543 936.285, 541.670 941.293, 534.262 949.412 C 528.035 956.237, 524.411 963.074, 521.978 972.585 C 517.046 991.870, 521.588 1008.782, 535.408 1022.583 C 547.158 1034.318, 559.442 1038.894, 575.500 1037.520 C 609.225 1034.633, 631.054 1005.310, 623.460 973.093 C 620.388 960.058, 610.896 947.363, 598.919 940.268 C 588.913 934.341, 572.972 931.687, 561.500 934.039 M 1061.500 948.920 C 1055.011 952.686, 1056.716 950.838, 989.919 1026.500 C 924.126 1101.025, 913.878 1112.447, 885.133 1143.287 C 873.629 1155.629, 863.717 1166.659, 863.108 1167.798 C 861.290 1171.194, 861.821 1175.634, 864.413 1178.714 C 865.740 1180.292, 870.862 1183.770, 875.794 1186.443 C 885.764 1191.848, 878.434 1185.564, 1012.726 1303.841 C 1056.851 1342.703, 1095.022 1375.591, 1097.552 1376.924 C 1108.138 1382.503, 1120.467 1379.455, 1126.356 1369.803 C 1130.304 1363.333, 1131.105 1354.063, 1128.200 1348.447 C 1125.389 1343.012, 1124.131 1341.857, 1048 1274.863 C 937.137 1177.305, 929.874 1170.819, 928.754 1168.360 C 927.989 1166.679, 927.988 1165.352, 928.751 1163.750 C 929.341 1162.513, 945.007 1144.400, 963.564 1123.500 C 1056.684 1018.622, 1086.760 984.400, 1089.490 980.212 C 1091.943 976.449, 1092.544 974.358, 1092.835 968.563 C 1093.167 961.931, 1092.985 961.197, 1089.845 956.537 C 1083.071 946.485, 1071.196 943.294, 1061.500 948.920" stroke="none" fill="#312e77" fill-rule="evenodd"/><path d="M 4.315 1.007 C 3.114 1.491, 1.649 2.788, 1.060 3.888 C 0.301 5.307, 0.069 210.079, 0.266 707.195 L 0.543 1408.500 2.688 1417 C 9.053 1442.229, 19.858 1461.768, 37 1479.043 C 47.372 1489.496, 55.655 1495.472, 68.056 1501.453 C 83.418 1508.862, 93.681 1510.987, 119.500 1512.107 C 132.030 1512.651, 228.234 1512.993, 343 1512.903 C 543.568 1512.744, 544.535 1512.753, 552.144 1514.804 C 561.420 1517.304, 569.395 1521.233, 577.873 1527.480 C 598.677 1542.811, 624.525 1577.579, 643.125 1615.250 C 645.502 1620.062, 647.734 1624, 648.087 1624 C 648.440 1624, 649.484 1622.022, 650.407 1619.605 C 652.598 1613.869, 664.955 1592.286, 670.794 1584 C 693.546 1551.708, 723.933 1527.004, 751.906 1518.055 C 767.862 1512.951, 759.582 1513.145, 984 1512.625 C 1166.547 1512.203, 1194.272 1511.946, 1199.500 1510.628 C 1215.734 1506.537, 1232.055 1499.655, 1244 1491.863 C 1253.226 1485.844, 1266.771 1471.990, 1273.418 1461.773 C 1280.388 1451.061, 1289.109 1433.052, 1292.196 1423 L 1294.500 1415.500 1295 1163.500 L 1295.500 911.500 1296.003 1156.500 C 1296.280 1291.627, 1296.572 1088.026, 1296.653 702.500 C 1296.734 318.050, 1296.461 4.625, 1296.047 6 C 1295.294 8.495, 1295.292 8.494, 1294.896 5.523 C 1294.639 3.593, 1293.621 2.104, 1292 1.288 C 1289.999 0.280, 1161.578 0.039, 648 0.078 C 280.987 0.106, 5.565 0.503, 4.315 1.007 M 0.497 703.500 C 0.497 1087.950, 0.611 1245.075, 0.750 1052.668 C 0.889 860.260, 0.889 545.710, 0.750 353.668 C 0.611 161.625, 0.497 319.050, 0.497 703.500 M 1295.482 122.500 C 1295.482 179.150, 1295.602 202.178, 1295.750 173.674 C 1295.897 145.169, 1295.897 98.819, 1295.750 70.674 C 1295.602 42.528, 1295.481 65.850, 1295.482 122.500 M 41.259 33.705 C 35.721 34.773, 36 28.005, 36 161.268 L 36 284.091 38.455 286.545 L 40.909 289 647.844 289 C 1232.565 289, 1254.860 288.934, 1257.019 287.186 L 1259.259 285.372 1259.380 162.936 C 1259.446 95.596, 1259.150 39.247, 1258.722 37.715 C 1258.265 36.078, 1256.898 34.532, 1255.407 33.965 C 1252.924 33.021, 46.145 32.762, 41.259 33.705 M 41.689 326.427 C 39.043 327.139, 36.343 328.257, 35.689 328.911 C 34.033 330.566, 33.788 522.345, 34.818 1011 L 35.647 1404.500 37.829 1412.500 C 46.352 1443.749, 68.911 1466.332, 100.500 1475.234 L 108.500 1477.489 330.500 1478.035 C 539.351 1478.548, 552.941 1478.687, 559.944 1480.372 C 580.742 1485.377, 598.621 1495.484, 614.026 1510.946 C 622.468 1519.420, 640.665 1540.074, 646 1547.238 C 647.925 1549.823, 649.725 1551.934, 650 1551.930 C 650.275 1551.925, 653.875 1547.617, 658 1542.356 C 678.289 1516.481, 707.893 1494.667, 735.049 1485.583 C 757.430 1478.096, 740.121 1478.639, 976.500 1478.019 L 1188.500 1477.462 1195.464 1475.241 C 1228.921 1464.566, 1250.511 1441.587, 1258.637 1408 C 1260.376 1400.811, 1260.463 1378.298, 1260.735 864.954 C 1260.980 402.087, 1260.824 329.142, 1259.590 327.454 C 1258.176 325.520, 1252.104 325.498, 652.331 325.316 C 159.221 325.167, 45.605 325.373, 41.689 326.427 M 70.302 377.012 C 68.909 377.573, 67.718 379.332, 67.049 381.819 C 66.312 384.556, 66.069 544.225, 66.246 909.835 C 66.489 1411.441, 66.577 1434.005, 68.286 1435.714 C 69.987 1437.415, 78.642 1437.500, 251 1437.500 C 423.358 1437.500, 432.013 1437.415, 433.714 1435.714 C 435.424 1434.005, 435.500 1411.513, 435.500 906.876 L 435.500 379.823 433.139 377.912 C 430.834 376.045, 426.579 376.001, 251.639 376.063 C 150.224 376.099, 71.547 376.511, 70.302 377.012 M 855.652 377.832 C 854.119 379.526, 854.014 393.748, 854.247 566.975 L 854.500 754.287 859.585 749.894 C 862.381 747.477, 871.831 739.111, 880.585 731.303 C 901.837 712.345, 909.035 706.725, 918.115 702.001 C 928.386 696.657, 937.297 694.639, 947.563 695.332 C 978.829 697.442, 1000.902 725.920, 993.449 754.534 C 989.818 768.474, 985.889 773.098, 949.500 806.243 C 894.250 856.569, 855.278 892.832, 854.632 894.517 C 853.416 897.686, 854.021 899.967, 856.510 901.598 C 858.778 903.085, 868.385 903.303, 956.356 903.871 C 1057.472 904.524, 1057 904.503, 1057 908.427 C 1057 909.077, 1055.650 911.737, 1054 914.339 C 1052.350 916.941, 1051 919.241, 1051 919.450 C 1051 919.660, 1058.537 919.982, 1067.750 920.166 L 1084.500 920.500 1092.332 924.240 C 1105.944 930.739, 1116.145 943.251, 1119.112 957.086 C 1120.572 963.892, 1119.733 977.043, 1117.395 984 C 1113.717 994.947, 1110.281 999.091, 1024.546 1095.972 C 1005.821 1117.131, 985.657 1139.596, 979.738 1145.895 C 967.083 1159.361, 965.449 1162.755, 968.920 1168.371 C 970.123 1170.317, 974.795 1174.957, 979.303 1178.682 C 983.812 1182.407, 993.350 1190.659, 1000.500 1197.020 C 1007.650 1203.381, 1042.075 1233.807, 1077 1264.632 C 1111.925 1295.458, 1142.664 1323.010, 1145.309 1325.859 C 1147.954 1328.709, 1151.777 1334.519, 1153.805 1338.770 C 1157.207 1345.902, 1157.492 1347.196, 1157.496 1355.500 C 1157.499 1362.310, 1156.939 1366.124, 1155.194 1371.173 C 1150.908 1383.576, 1139.919 1396.430, 1128.713 1402.146 C 1126.554 1403.248, 1119.063 1405.633, 1112.066 1407.446 L 1099.344 1410.743 1088.422 1403.349 C 1075.273 1394.448, 1072.442 1392.026, 977.513 1308.486 C 865.996 1210.347, 862.779 1207.563, 859.158 1206.064 C 856.298 1204.881, 855.686 1204.884, 854.923 1206.090 C 854.414 1206.895, 854.024 1255.922, 854.015 1320.295 L 854 1433.091 856.455 1435.545 L 858.909 1438 1038 1438 L 1217.091 1438 1219.548 1435.543 L 1222.006 1433.085 1221.753 905.962 C 1221.503 385.473, 1221.476 378.821, 1219.559 377.419 C 1217.899 376.206, 1191.475 376, 1037.464 376 C 864.100 376, 857.248 376.069, 855.652 377.832 M 333 773.132 C 304.573 777.774, 279.061 799.010, 269.212 826.227 C 260.175 851.202, 263.437 876.767, 278.577 899.623 C 287.968 913.800, 302.541 925.119, 318.500 930.632 C 325.743 933.134, 328.108 933.432, 343.500 933.785 C 363.772 934.249, 370.048 933.111, 383.500 926.528 C 404.813 916.098, 419.558 897.628, 425.069 874.460 C 426.893 866.792, 427.133 863.409, 426.734 851 C 426.185 833.927, 424.833 828.174, 418.279 815 C 414.425 807.255, 411.977 803.912, 405.026 796.901 C 395.079 786.870, 386.300 781.361, 373.500 777.121 C 359.295 772.415, 345.632 771.069, 333 773.132 M 856.635 1061.073 L 854 1063.145 854.015 1097.823 C 854.024 1116.895, 854.417 1133.109, 854.888 1133.853 C 855.530 1134.867, 856.240 1134.942, 857.713 1134.153 C 860.147 1132.851, 922.376 1062.377, 922.823 1060.416 C 923.097 1059.217, 918.245 1059, 891.208 1059 C 860.411 1059, 859.176 1059.074, 856.635 1061.073" stroke="none" fill="#d83a32" fill-rule="evenodd"/><path d="M 342.832 33.750 C 508.015 33.889, 778.015 33.889, 942.832 33.750 C 1107.649 33.611, 972.500 33.497, 642.500 33.497 C 312.500 33.497, 177.649 33.611, 342.832 33.750 M 200.423 77.500 C 200.424 89.050, 200.570 93.638, 200.747 87.696 C 200.924 81.753, 200.923 72.303, 200.745 66.696 C 200.567 61.088, 200.422 65.950, 200.423 77.500 M 1259.472 142 C 1259.472 178.025, 1259.597 192.762, 1259.750 174.750 C 1259.902 156.738, 1259.902 127.263, 1259.750 109.250 C 1259.597 91.237, 1259.472 105.975, 1259.472 142 M 34.492 595 C 34.492 732.225, 34.608 788.363, 34.750 719.750 C 34.892 651.138, 34.892 538.863, 34.750 470.250 C 34.608 401.638, 34.492 457.775, 34.492 595 M 163.829 375.750 C 212.410 375.893, 291.610 375.893, 339.829 375.750 C 388.048 375.606, 348.300 375.489, 251.500 375.489 C 154.700 375.489, 115.248 375.606, 163.829 375.750 M 948.829 375.750 C 997.960 375.893, 1078.060 375.893, 1126.829 375.750 C 1175.598 375.606, 1135.400 375.489, 1037.500 375.489 C 939.600 375.489, 899.698 375.606, 948.829 375.750 M 853.489 560 C 853.489 657.625, 853.606 697.563, 853.750 648.750 C 853.893 599.938, 853.893 520.063, 853.750 471.250 C 853.606 422.438, 853.489 462.375, 853.489 560 M 581.280 789.736 C 583.909 789.943, 587.959 789.940, 590.280 789.731 C 592.601 789.521, 590.450 789.352, 585.500 789.355 C 580.550 789.358, 578.651 789.530, 581.280 789.736 M 649.750 790.732 C 652.087 790.943, 655.913 790.943, 658.250 790.732 C 660.587 790.522, 658.675 790.349, 654 790.349 C 649.325 790.349, 647.413 790.522, 649.750 790.732 M 717.750 791.732 C 720.087 791.943, 723.913 791.943, 726.250 791.732 C 728.587 791.522, 726.675 791.349, 722 791.349 C 717.325 791.349, 715.413 791.522, 717.750 791.732 M 869.302 903.746 C 874.693 903.926, 883.243 903.925, 888.302 903.744 C 893.361 903.563, 888.950 903.416, 878.500 903.417 C 868.050 903.418, 863.911 903.566, 869.302 903.746 M 691.370 960 C 691.370 965.775, 691.535 968.138, 691.737 965.250 C 691.939 962.362, 691.939 957.638, 691.737 954.750 C 691.535 951.862, 691.370 954.225, 691.370 960 M 726.750 1033.749 C 742.288 1033.904, 767.713 1033.904, 783.250 1033.749 C 798.788 1033.594, 786.075 1033.468, 755 1033.468 C 723.925 1033.468, 711.213 1033.594, 726.750 1033.749 M 853.423 1085.500 C 853.424 1097.050, 853.570 1101.638, 853.747 1095.696 C 853.924 1089.753, 853.923 1080.303, 853.745 1074.696 C 853.567 1069.088, 853.422 1073.950, 853.423 1085.500 M 853.483 1321 C 853.483 1381.775, 853.603 1406.637, 853.750 1376.250 C 853.897 1345.862, 853.897 1296.137, 853.750 1265.750 C 853.603 1235.362, 853.483 1260.225, 853.483 1321" stroke="none" fill="#dc3c34" fill-rule="evenodd"/><path d="M 641.404 33.691 L 40.308 34.002 38.404 36.106 C 36.557 38.146, 36.492 41.830, 36.238 158.704 C 36.064 238.702, 36.321 280.477, 37.002 283.006 C 37.796 285.957, 38.733 287.060, 41.163 287.907 C 45.545 289.435, 1250.647 289.465, 1254.665 287.937 C 1256.202 287.353, 1257.799 286.341, 1258.214 285.687 C 1258.630 285.034, 1258.976 229.087, 1258.985 161.361 C 1259.002 19.936, 1260.114 34.154, 1249 33.665 C 1245.425 33.508, 972.007 33.520, 641.404 33.691 M 66 157 L 66 257 88 257 L 110 257 110 218 L 110 179 152 179 L 194 179 194 158.500 L 194 138 152 138 L 110 138 110 118 L 110 98 155.500 98 L 201 98 201 77.500 L 201 57 133.500 57 L 66 57 66 157 M 267 157 L 267 257 309.250 256.994 C 354.959 256.988, 362.654 256.386, 379.400 251.512 C 417.051 240.554, 443.827 212.889, 450.415 178.140 C 452.450 167.407, 452.494 145.758, 450.502 135.348 C 443.929 100.990, 422.738 76.666, 389.500 65.326 C 368.806 58.266, 356.770 57.043, 307.750 57.020 L 267 57 267 157 M 517 157 L 517 257 539.493 257 L 561.987 257 562.243 186.320 L 562.500 115.640 605.890 186.320 L 649.280 257 678.140 257 L 707 257 707 157 L 707 57 685.007 57 L 663.014 57 662.757 126.243 L 662.500 195.486 620.062 126.243 L 577.624 57 547.312 57 L 517 57 517 157 M 783 157 L 783 257 825.250 256.994 C 870.959 256.988, 878.654 256.386, 895.400 251.512 C 933.051 240.554, 959.827 212.889, 966.415 178.140 C 968.450 167.407, 968.494 145.758, 966.502 135.348 C 959.929 100.990, 938.738 76.666, 905.500 65.326 C 884.806 58.266, 872.770 57.043, 823.750 57.020 L 783 57 783 157 M 1097.669 60.228 C 1096.913 62.028, 1077.552 106.782, 1054.647 159.682 C 1031.741 212.582, 1013 256.119, 1013 256.432 C 1013 256.744, 1023.933 257, 1037.295 257 L 1061.590 257 1069.931 235.500 L 1078.272 214 1117.034 214 L 1155.795 214 1164.296 235.250 L 1172.797 256.500 1197.898 256.767 C 1211.704 256.914, 1222.999 256.914, 1222.998 256.767 C 1222.998 256.620, 1203.481 211.725, 1179.628 157 L 1136.259 57.500 1117.652 57.228 L 1099.045 56.956 1097.669 60.228 M 312 156.865 L 312 216 325.750 215.992 C 350.484 215.977, 364.156 213.609, 377.634 207.004 C 395.911 198.048, 405.961 179.958, 405.968 156 C 405.975 133.683, 396.220 117.060, 377.358 107.247 C 364.695 100.659, 356.035 98.939, 332.250 98.285 L 312 97.729 312 156.865 M 828 156.865 L 828 216 841.750 215.992 C 866.484 215.977, 880.156 213.609, 893.634 207.004 C 911.911 198.048, 921.961 179.958, 921.968 156 C 921.975 133.683, 912.220 117.060, 893.358 107.247 C 880.695 100.659, 872.035 98.939, 848.250 98.285 L 828 97.729 828 156.865 M 1114.958 118.611 C 1111.196 128.512, 1092.696 175.633, 1092.329 176.250 C 1092.083 176.662, 1102.877 177, 1116.315 177 L 1140.748 177 1128.777 146.750 C 1122.193 130.113, 1116.638 116.325, 1116.431 116.111 C 1116.225 115.898, 1115.562 117.023, 1114.958 118.611 M 48 325.654 C 46.625 325.866, 44.012 326.281, 42.194 326.575 C 40.376 326.870, 38.014 327.986, 36.944 329.056 C 35.023 330.977, 35 337.411, 35 861.928 C 35 1237.321, 35.317 1395.135, 36.082 1400.636 C 39.255 1423.446, 50.289 1443.896, 66.833 1457.626 C 74.962 1464.372, 90.548 1472.159, 102 1475.195 L 110.500 1477.449 333 1478.017 C 505.462 1478.457, 556.512 1478.864, 560 1479.825 C 583.298 1486.243, 596.480 1493.630, 612.871 1509.453 C 622.310 1518.565, 636.978 1534.820, 644.947 1545 C 647.316 1548.025, 649.578 1550.500, 649.975 1550.500 C 650.372 1550.500, 654.745 1545.550, 659.692 1539.500 C 680.249 1514.362, 708.508 1493.822, 734.532 1485.103 C 755.220 1478.172, 737.667 1478.689, 973.500 1478.064 L 1186.500 1477.500 1195.438 1474.700 C 1220.695 1466.787, 1240.328 1450.461, 1250.996 1428.500 C 1256.832 1416.485, 1258.960 1407.001, 1260.082 1388 C 1260.699 1377.558, 1260.954 1180.132, 1260.778 850.286 C 1260.512 351.463, 1260.423 328.995, 1258.714 327.286 C 1257.004 325.576, 1231.379 325.495, 653.714 325.385 C 321.946 325.321, 49.375 325.442, 48 325.654 M 73.274 375.715 C 71.341 375.959, 69.237 377.155, 68.024 378.696 L 66 381.270 66 907.635 C 66 1432.667, 66.005 1434.005, 68 1436 C 69.985 1437.985, 71.333 1438, 250.809 1438 C 405.385 1438, 431.899 1437.794, 433.559 1436.581 C 435.475 1435.179, 435.504 1428.528, 435.783 909.831 C 435.939 620.899, 435.807 383.043, 435.490 381.262 C 435.158 379.394, 433.980 377.490, 432.707 376.762 C 430.955 375.760, 394.034 375.480, 253.500 375.403 C 156.150 375.350, 75.048 375.490, 73.274 375.715 M 858.323 375.691 C 853.249 376.691, 853.522 367.499, 853.187 548.904 C 853.015 642.182, 853.176 726.707, 853.545 736.738 L 854.216 754.975 856.782 752.957 C 858.193 751.847, 866.977 744.090, 876.302 735.719 C 908.257 707.035, 919.268 699.661, 935 696.414 C 956.665 691.941, 979.650 703.346, 989.589 723.500 C 994.280 733.012, 995.700 741.077, 994.158 749.446 C 991.032 766.414, 986.637 771.869, 947.203 807.731 C 895.564 854.693, 861.818 885.805, 857.750 890.203 C 854.937 893.244, 854 895.112, 854 897.680 C 854 904.053, 850.053 903.801, 956.529 904.214 C 1009.313 904.419, 1053.287 904.953, 1054.250 905.400 C 1056.817 906.594, 1056.386 909.906, 1053.003 915 L 1050.014 919.500 1053.257 920.248 C 1055.041 920.659, 1061.264 920.718, 1067.088 920.380 C 1075.492 919.891, 1078.886 920.116, 1083.545 921.470 C 1101.540 926.701, 1114.078 939.447, 1118.609 957.113 C 1121.682 969.093, 1118.606 984.292, 1110.737 996.015 C 1108.712 999.032, 1096.188 1013.875, 1082.906 1029 C 1034.915 1083.652, 984.389 1140.656, 977.430 1148 C 968.535 1157.387, 967 1159.672, 967 1163.528 C 967 1167.536, 969.899 1171.335, 978.495 1178.593 C 998.301 1195.318, 1140.174 1320.893, 1144.278 1325.332 C 1150.067 1331.593, 1155.642 1342.459, 1157.054 1350.232 C 1160.394 1368.624, 1146.175 1393.552, 1127.500 1402.041 C 1124.200 1403.541, 1116.467 1405.988, 1110.315 1407.479 L 1099.130 1410.189 1088.602 1403.023 C 1076.318 1394.661, 1069.392 1388.696, 951.393 1284.846 C 861.335 1205.586, 856.433 1201.598, 854.314 1205.863 C 853.380 1207.741, 852.605 1425.786, 853.513 1430.806 C 853.842 1432.624, 854.986 1434.986, 856.056 1436.056 C 857.967 1437.967, 861.058 1438, 1038.345 1438 C 1211.790 1438, 1218.753 1437.930, 1220.345 1436.171 C 1221.881 1434.474, 1222 1396.282, 1222 906.826 L 1222 379.310 1219.895 377.405 C 1217.843 375.548, 1213.328 375.497, 1039.145 375.381 C 940.890 375.315, 859.520 375.455, 858.323 375.691 M 702.703 584.390 C 694.496 587.430, 684.793 595.217, 649 627.489 C 598.171 673.318, 478.601 784.130, 466.794 796.350 C 459.332 804.072, 459.235 804.715, 458.454 851.113 L 457.770 891.726 460.108 893.363 C 462.236 894.853, 471.633 895, 564.973 894.994 C 631.345 894.991, 668.790 894.630, 671.159 893.972 C 674.146 893.143, 679.679 887.763, 701.236 864.728 C 715.766 849.203, 735.815 827.598, 745.790 816.718 C 762.547 798.441, 763.846 796.756, 762.856 794.584 L 761.785 792.234 730.143 791.597 C 712.739 791.247, 666.550 790.498, 627.500 789.932 C 588.450 789.367, 555.712 788.670, 554.750 788.384 C 551.911 787.542, 552.720 785.012, 557.250 780.564 C 559.587 778.269, 597.275 742.924, 641 702.019 C 684.725 661.113, 723.486 624.613, 727.136 620.906 C 737.890 609.982, 739.397 602.609, 732.675 593.796 C 727.581 587.117, 721.061 583.607, 713.119 583.267 C 709.197 583.099, 704.953 583.557, 702.703 584.390 M 937.162 722.992 C 929.362 725.799, 923.705 729.387, 915.126 736.972 C 910.932 740.680, 860.025 787.198, 802 840.345 C 718.433 916.887, 695.981 937.959, 694.001 941.708 L 691.503 946.442 690.784 986.971 C 690.107 1025.141, 690.170 1027.644, 691.874 1029.978 C 692.869 1031.340, 695.216 1032.819, 697.091 1033.264 C 698.966 1033.709, 745.710 1033.789, 800.966 1033.442 C 888.328 1032.893, 901.937 1032.609, 905.302 1031.262 C 908.151 1030.122, 915.149 1023.349, 931.836 1005.579 C 968.731 966.290, 996.456 935.969, 997.126 934.176 C 998.715 929.927, 1000.591 930.004, 893.628 929.924 C 817.963 929.868, 790.659 929.543, 788.255 928.671 L 785.010 927.493 786.755 923.997 C 788.473 920.555, 884.291 829.780, 957.743 762.008 C 964.642 755.643, 967.956 749.637, 967.956 743.500 C 967.956 734.611, 960.442 725.397, 950.878 722.556 C 944.344 720.616, 943.712 720.636, 937.162 722.992 M 336.259 773.133 C 326.883 774.184, 315.409 778.042, 306.009 783.306 C 295.829 789.005, 281.005 803.829, 275.306 814.009 C 260.316 840.781, 261.215 871.710, 277.730 897.415 C 289.151 915.191, 305.837 927.354, 325.153 931.985 C 336.838 934.786, 356.620 934.783, 367.590 931.977 C 394.300 925.146, 413.946 906.774, 423.171 880 C 426.314 870.879, 426.445 869.881, 426.466 855 C 426.490 837.283, 425.183 830.665, 419.057 817.500 C 413.129 804.760, 403.246 793.593, 390.948 785.738 C 375.716 776.009, 354.412 771.099, 336.259 773.133 M 332.500 792.642 C 309.195 797.565, 290.959 815.202, 284.972 838.609 C 276.890 870.209, 294.992 902.966, 326.487 913.733 C 337.326 917.438, 353.787 917.676, 364.500 914.282 C 384.199 908.041, 399.969 892.041, 406.176 872 C 409.160 862.365, 409.365 845.710, 406.613 836.500 C 397.013 804.367, 365.441 785.683, 332.500 792.642 M 559.272 934.437 C 531.853 941.081, 514.234 971.441, 521.533 999.465 C 525.956 1016.448, 540.607 1031.316, 557.932 1036.405 C 568.938 1039.638, 586.990 1037.396, 597.939 1031.437 C 618.614 1020.184, 629.398 995.306, 623.469 972.542 C 616.292 944.988, 587.140 927.684, 559.272 934.437 M 1063.500 947.389 C 1058.195 949.706, 1054.295 953.758, 1019.634 992.963 C 927.189 1097.528, 907.459 1119.518, 876.496 1152.500 C 863.016 1166.859, 862 1168.318, 862 1173.318 C 862 1177.605, 865.852 1181.152, 877.777 1187.851 C 886.786 1192.911, 887.672 1193.674, 1018.500 1308.947 C 1059.200 1344.809, 1094.525 1375.354, 1097 1376.825 C 1100.755 1379.057, 1102.685 1379.500, 1108.664 1379.500 C 1115.017 1379.500, 1116.313 1379.159, 1120.120 1376.483 C 1125.946 1372.388, 1130 1364.579, 1130 1357.451 C 1130 1350.855, 1129.037 1348.252, 1124.817 1343.439 C 1122.094 1340.334, 1058.905 1284.337, 946.752 1185.642 C 937.466 1177.470, 929.459 1169.707, 928.959 1168.392 C 928.416 1166.964, 928.414 1165.093, 928.953 1163.750 C 929.450 1162.513, 959.206 1128.425, 995.077 1088 C 1087.061 984.340, 1089.083 982.008, 1091.344 977 C 1096.537 965.502, 1091.180 952.335, 1079.282 947.348 C 1075.235 945.653, 1067.429 945.673, 1063.500 947.389 M 855.861 1060.921 L 853.500 1062.841 853.723 1097.171 C 853.846 1116.052, 854.195 1132.521, 854.497 1133.769 C 855.658 1138.555, 855.746 1138.465, 905.630 1081.753 C 915.184 1070.892, 923 1061.330, 923 1060.503 C 923 1059.197, 918.765 1059, 890.611 1059 C 860.155 1059, 858.081 1059.115, 855.861 1060.921" stroke="none" fill="#fbfbfb" fill-rule="evenodd"/></svg>